# xmcd
#
# Track frame offsets: 
#        150
#        14445
#        29580
#        50663
#        66903
#        86025
#        100613
#        114675
#        130793
#        146168
#        158053
#        173760
#
# Disc length: 2472 seconds
#
# Revision: 3
# Processed by: cddbd v1.5.2PL0 Copyright (c) Steve Scherf et al.
# Submitted via: ExactAudioCopyFreeDBPlugin 1.0
#
DISCID=a509a60c
DTITLE=Various Artist - Didn't It Blow Your Mind!:  Soul Hits of the 
DTITLE='70s [Rhino series]
DYEAR=1991
DGENRE=SMB
TTITLE0=The Hues Corporation - Rock the Boat
TTITLE1=George McCrae - Rock Your Baby
TTITLE2=Kool and The Gang - Hollywood Swinging
TTITLE3=The Love Unlimited Orchestra - Love's Theme
TTITLE4=Blue Magic - Sideshow
TTITLE5=Millie Jackson - Hurts So Good
TTITLE6=The Impressions - Finally Got Myself Together
TTITLE7=Rufus - Tell Me Something Good
TTITLE8=Johnny Bristol - Hang On in There Baby
TTITLE9=Billy Preston - Nothing from Nothing
TTITLE10=B.T. Express - Do It (Til You're Satisfied)
TTITLE11=Carl Carlton - Everlasting Love
EXTD=
EXTT0=
EXTT1=
EXTT2=
EXTT3=
EXTT4=
EXTT5=
EXTT6=
EXTT7=
EXTT8=
EXTT9=
EXTT10=
EXTT11=
PLAYORDER=
